<?xml version="1.0" standalone="no"?>
<!DOCTYPE svg PUBLIC "-//W3C//DTD SVG 20010904//EN"
 "http://www.w3.org/TR/2001/REC-SVG-20010904/DTD/svg10.dtd">
<svg version="1.0" xmlns="http://www.w3.org/2000/svg"
 width="800.000000pt" height="800.000000pt" viewBox="0 0 800.000000 800.000000"
 preserveAspectRatio="xMidYMid meet">

<g transform="translate(0.000000,800.000000) scale(0.100000,-0.100000)"
fill="#000000" stroke="none">
<path d="M4483 7153 c15 -2 37 -2 50 0 12 2 0 4 -28 4 -27 0 -38 -2 -22 -4z"/>
<path d="M4415 7140 c3 -5 1 -10 -5 -10 -6 0 -18 -7 -26 -15 -9 -8 -24 -15
-35 -15 -20 0 -146 -47 -165 -61 -6 -5 -45 -24 -88 -44 l-77 -35 21 30 c12 16
31 36 42 45 12 8 20 17 17 19 -2 2 -31 -16 -64 -41 -41 -30 -59 -51 -58 -64 2
-12 -35 -56 -107 -128 -107 -106 -166 -149 -141 -103 6 12 16 24 21 27 10 6
51 63 76 107 6 11 24 32 40 49 15 16 23 29 18 29 -19 0 -104 -96 -104 -116 0
-12 -21 -43 -46 -70 -95 -100 -149 -207 -109 -216 12 -2 10 -11 -12 -41 -15
-21 -29 -33 -31 -27 -3 7 0 15 5 19 5 3 12 15 16 26 4 11 -11 0 -36 -26 -45
-50 -123 -193 -119 -221 5 -32 -40 -118 -69 -134 -16 -8 -29 -13 -29 -11 0 17
25 74 37 84 8 6 13 22 11 35 -6 40 -76 -75 -92 -153 -13 -64 -47 -142 -66
-154 -5 -3 -10 0 -10 7 -1 8 -6 6 -15 -6 -8 -11 -13 -28 -9 -38 3 -10 -4 -44
-15 -76 -15 -39 -16 -51 -6 -38 8 10 16 24 18 30 3 8 8 8 17 -1 11 -10 9 -17
-6 -40 -10 -15 -18 -37 -19 -47 0 -28 -25 -32 -26 -4 -1 13 -1 27 1 33 1 5 -7
2 -17 -6 -10 -9 -25 -19 -34 -22 -20 -7 -72 -130 -74 -177 -1 -19 -5 -44 -9
-55 -5 -11 -4 -15 1 -9 11 14 43 25 43 15 0 -15 -49 -116 -49 -102 -1 11 -4
11 -17 0 -15 -12 -16 -11 -10 9 11 32 -18 29 -41 -5 -24 -36 -51 -102 -51
-128 -1 -26 -9 -66 -17 -86 -3 -10 -2 -20 4 -24 6 -3 11 1 11 9 0 9 5 16 11
16 7 0 9 -9 3 -27 -4 -16 -8 -44 -8 -63 -1 -24 -6 -35 -16 -35 -27 -1 -37 -14
-44 -57 -7 -46 -34 -127 -47 -142 -19 -21 -18 4 1 48 24 56 25 62 6 47 -22
-19 -40 -95 -27 -119 12 -22 5 -52 -11 -52 -5 0 -8 -10 -6 -23 1 -12 -5 -33
-15 -47 -9 -13 -17 -36 -17 -50 0 -14 -9 -33 -20 -43 -15 -12 -19 -24 -14 -42
5 -19 -3 -43 -26 -86 -17 -33 -29 -63 -26 -66 3 -4 -1 -18 -10 -31 -23 -36
-56 -174 -44 -186 7 -7 10 -5 10 5 0 11 2 12 9 0 6 -9 13 0 26 33 10 25 21 46
25 46 10 0 21 27 30 75 5 22 24 85 44 139 20 55 34 101 31 104 -4 4 -10 -10
-31 -67 -2 -8 -7 -12 -10 -9 -3 3 7 39 21 79 15 41 31 89 36 107 6 17 15 32
20 32 28 0 -28 -213 -145 -545 -25 -71 -46 -143 -46 -160 0 -48 -20 -109 -41
-125 -18 -14 -43 -106 -32 -122 2 -5 -5 -34 -17 -65 -17 -47 -21 -80 -22 -192
-1 -133 -8 -171 -29 -171 -11 0 -5 73 9 108 3 10 1 13 -6 8 -7 -4 -12 -16 -12
-27 0 -11 -6 -30 -14 -42 -16 -25 -19 -77 -4 -77 5 0 6 -10 3 -22 -7 -23 -7
-23 9 -3 18 24 20 17 5 -22 -6 -15 -13 -57 -15 -93 -4 -72 -7 -97 -16 -105 -3
-3 0 -24 6 -46 8 -30 7 -45 -2 -60 -10 -16 -10 -20 4 -26 10 -4 14 -13 10 -28
-10 -39 12 -325 27 -348 16 -27 22 -107 7 -107 -5 0 -10 7 -10 17 0 9 -3 14
-6 10 -10 -10 7 -47 22 -47 16 0 47 -68 40 -87 -3 -7 -1 -15 4 -18 13 -8 13
51 0 76 -7 12 -7 25 -2 36 8 13 13 3 26 -43 32 -113 59 -194 64 -194 9 0 -8
111 -20 134 -13 24 -16 42 -22 176 -2 52 -1 79 3 60 4 -20 11 -42 16 -49 4 -8
12 -28 16 -45 6 -23 8 -14 7 39 0 39 0 78 1 88 1 24 21 11 21 -15 0 -11 8 -32
19 -46 10 -15 23 -40 29 -57 10 -29 10 -29 12 -5 0 22 2 23 11 7 6 -10 9 -28
7 -40 -1 -12 2 -23 7 -24 11 -2 35 -86 35 -123 0 -14 9 -33 20 -43 19 -16 20
-16 20 18 0 47 15 45 18 -2 3 -46 12 -58 12 -16 0 16 3 32 6 35 3 3 5 59 5
124 1 66 5 137 10 159 6 22 11 59 12 83 1 23 5 42 11 42 5 0 6 22 3 50 -3 27
-2 52 4 55 5 4 9 21 9 38 0 18 7 50 15 72 8 22 14 63 15 90 0 28 7 63 15 79 8
15 13 31 11 35 -8 13 25 176 39 190 12 12 13 6 9 -45 -3 -32 -14 -88 -24 -124
-10 -36 -21 -85 -24 -110 -15 -109 -57 -405 -61 -429 -5 -21 -4 -22 3 -6 19
42 34 92 43 135 19 101 43 249 49 315 4 39 17 111 29 160 12 50 24 101 26 115
11 66 31 131 40 130 6 -1 9 -12 8 -26 -1 -13 0 -24 1 -24 6 0 36 101 81 269
13 52 29 99 35 105 5 5 10 24 10 41 0 34 19 91 49 150 12 21 21 46 21 54 0 37
34 145 51 162 11 11 19 28 19 39 0 11 7 23 16 27 10 4 14 13 10 27 -3 11 6 48
19 80 13 33 22 62 20 66 -2 4 27 69 65 145 39 75 70 147 70 159 0 12 6 30 13
41 8 11 35 72 61 135 27 63 52 120 57 126 4 5 6 19 3 30 -3 13 3 32 18 50 34
42 58 81 58 96 0 7 10 18 22 23 23 10 82 102 92 145 4 15 -4 7 -19 -20 -16
-27 -23 -35 -20 -20 4 14 6 36 6 50 -1 13 12 43 27 65 40 57 47 70 34 61 -22
-13 -13 29 17 85 16 30 35 77 42 104 6 28 15 55 20 60 21 28 69 132 69 150 0
25 82 171 115 204 19 19 27 22 38 13 11 -9 19 -5 38 21 38 50 59 86 59 101 0
7 7 19 15 26 10 9 15 9 15 1 0 -16 26 -13 40 5 8 8 29 22 48 30 19 8 41 22 48
32 13 16 13 16 14 -1 0 -10 4 -23 10 -30 47 -58 60 -77 65 -99 9 -34 35 -45
42 -18 8 30 30 24 49 -12 16 -32 46 -140 39 -146 -1 -1 -12 12 -24 30 -11 18
-21 28 -21 21 0 -6 5 -15 10 -18 6 -3 10 -15 10 -26 0 -12 7 -19 19 -19 14 0
21 -9 26 -31 5 -22 11 -29 22 -25 13 5 14 -1 9 -38 -5 -30 -3 -53 6 -68 7 -13
11 -26 10 -30 -1 -4 5 -40 14 -80 22 -107 36 -245 29 -308 -8 -89 -6 -239 5
-259 5 -10 7 -20 5 -23 -8 -8 -27 -131 -30 -198 -4 -77 -13 -123 -31 -159 -12
-22 -14 -23 -14 -6 0 16 -2 17 -10 5 -5 -9 -5 -19 2 -27 7 -9 7 -21 -1 -41 -7
-16 -9 -41 -5 -55 4 -17 2 -27 -5 -27 -6 0 -11 8 -12 18 -2 32 -28 -81 -34
-147 -3 -36 -9 -78 -11 -93 -10 -49 14 -30 26 22 7 28 16 53 21 56 10 6 2
-123 -9 -141 -4 -5 -7 -21 -8 -35 -1 -14 -5 -36 -7 -50 -3 -14 -9 -47 -14 -74
-4 -27 -14 -51 -20 -53 -9 -3 -11 4 -6 28 4 21 3 30 -5 26 -6 -5 -8 1 -4 15 3
14 1 19 -6 14 -13 -8 -32 -70 -32 -108 0 -33 -13 -42 -39 -29 -16 9 -19 6 -24
-32 -5 -32 -2 -45 10 -54 24 -18 28 -94 8 -147 -10 -25 -15 -54 -12 -66 3 -11
-3 -30 -15 -45 -19 -24 -19 -25 0 -25 15 0 23 16 41 93 13 50 25 113 28 139 3
26 11 52 19 59 11 9 14 8 14 -2 0 -28 -29 -165 -44 -208 -9 -24 -16 -55 -16
-70 0 -31 -25 -71 -44 -71 -16 0 -37 -45 -30 -64 3 -7 -4 -31 -15 -52 -12 -21
-21 -47 -21 -57 0 -10 -4 -16 -9 -12 -11 6 -23 -26 -26 -70 -4 -47 -24 -128
-33 -134 -5 -4 -12 -22 -16 -40 -9 -47 -32 -82 -51 -75 -8 4 -15 2 -15 -4 0
-6 -3 -18 -7 -28 -5 -13 -3 -16 10 -11 21 8 32 -25 17 -53 -15 -28 -21 -172
-7 -163 21 13 -1 -84 -31 -137 l-32 -55 6 40 5 40 -22 -45 c-12 -25 -21 -55
-21 -67 2 -32 -26 -93 -42 -93 -22 0 -56 -49 -56 -81 0 -21 4 -27 15 -23 9 4
15 1 15 -7 -1 -31 -39 -122 -72 -171 -19 -29 -38 -67 -41 -83 -20 -104 -30
-141 -39 -152 -5 -7 -24 -43 -42 -80 -18 -37 -79 -129 -135 -203 -57 -74 -107
-144 -111 -155 -4 -11 -27 -38 -49 -60 -23 -21 -41 -45 -41 -52 0 -16 -75 -36
-105 -29 -23 6 -51 -15 -38 -28 11 -11 -65 0 -124 19 -52 16 -97 50 -87 66 3
5 -1 6 -8 4 -8 -3 -34 16 -61 45 -52 55 -61 55 -22 -2 52 -76 20 -57 -45 27
-43 55 -69 125 -46 125 6 0 31 -21 56 -46 39 -39 49 -45 74 -40 16 4 31 8 34
10 2 3 -22 38 -54 78 -77 99 -73 95 -84 78 -5 -8 -10 -11 -10 -6 0 5 -6 3 -14
-3 -10 -8 -22 -7 -50 4 -20 8 -36 12 -36 8 0 -4 -5 -2 -12 5 -7 7 -16 12 -20
12 -12 0 -3 -119 10 -132 17 -17 15 -28 -4 -28 -19 0 -44 58 -44 102 0 30 -1
31 -14 12 -14 -18 -16 -17 -35 26 -11 25 -21 55 -21 68 0 13 -4 20 -10 17 -6
-4 -13 7 -16 24 -4 20 -11 28 -20 24 -8 -3 -14 1 -15 8 0 8 -7 -2 -15 -22 -12
-28 -20 -36 -35 -32 -11 3 -19 0 -19 -7 0 -14 -41 -3 -52 14 -4 6 -8 29 -9 51
-2 35 -3 36 -7 10 l-4 -30 -14 35 -14 35 3 -33 c4 -40 -3 -46 -37 -31 -19 9
-29 9 -40 0 -12 -10 -17 -8 -26 8 -6 11 -8 32 -4 45 3 14 1 33 -4 42 -8 15
-11 9 -17 -30 -11 -70 -1 -181 35 -394 5 -29 28 -90 50 -135 22 -46 40 -88 40
-94 0 -20 204 -289 231 -303 9 -5 52 -38 97 -73 87 -70 238 -148 329 -172 81
-21 210 -35 330 -35 81 0 117 5 175 24 115 38 224 82 260 104 18 12 58 35 88
53 30 18 78 54 107 81 28 26 56 48 61 48 5 0 47 37 94 83 135 131 294 359 408
587 99 197 203 437 240 555 7 22 16 45 20 50 4 6 11 26 14 45 7 34 40 142 57
188 5 13 9 32 9 42 0 11 6 34 14 52 26 61 57 167 62 213 2 25 6 66 9 91 2 25
9 52 15 59 6 7 14 41 19 76 5 35 16 82 25 104 17 45 21 145 6 145 -5 0 -10 15
-10 34 0 48 22 139 30 126 10 -16 23 102 22 180 -2 77 5 130 18 130 5 0 7 -6
4 -13 -5 -14 13 -73 21 -65 2 2 7 28 10 58 2 30 6 62 6 70 5 39 -2 71 -13 64
-25 -15 6 137 32 156 4 3 10 20 13 38 6 30 4 32 -20 32 l-26 0 7 95 c7 109 12
126 35 123 20 -4 35 85 32 182 -1 14 -1 45 -1 70 1 25 -4 46 -10 48 -5 2 -10
13 -10 24 0 17 3 18 15 8 17 -14 16 -18 19 117 0 46 -2 83 -5 83 -13 0 -19 33
-9 45 5 6 10 61 10 121 1 60 1 127 2 149 1 76 -10 350 -16 395 -30 209 -42
278 -67 364 -30 104 -35 131 -20 122 19 -12 87 -342 107 -521 7 -65 23 -110
23 -65 1 14 -4 54 -9 90 -6 36 -15 101 -21 145 -6 44 -15 85 -19 90 -4 6 -10
33 -14 60 -3 28 -15 79 -26 113 -23 72 -25 96 -9 86 7 -4 7 1 -1 16 -7 13 -10
38 -6 60 5 32 1 43 -24 75 -17 21 -30 34 -30 29 0 -5 -5 -2 -10 6 -5 8 -7 24
-4 35 4 14 3 16 -4 7 -7 -11 -10 -10 -16 3 -10 27 -7 35 10 28 14 -5 15 -1 9
28 -15 68 -46 137 -81 177 -20 23 -39 40 -43 38 -4 -3 -23 12 -42 32 -44 47
-118 149 -100 137 31 -19 -47 71 -92 107 -52 41 -54 53 -3 15 54 -41 62 -40
16 2 -49 45 -151 101 -190 106 -14 1 -70 10 -125 19 -55 9 -127 16 -160 15
l-60 0 45 -15 c25 -7 65 -14 90 -15 25 0 39 -3 32 -6 -8 -3 -57 -2 -110 2 -54
4 -90 10 -82 14 23 9 23 31 -1 31 -11 0 -17 -4 -14 -10z m214 -151 c22 -11 45
-18 50 -14 10 5 94 -35 116 -56 17 -17 -15 -9 -63 15 -74 36 -102 39 -359 33
-23 -1 -39 -6 -36 -11 4 -5 -1 -7 -10 -3 -10 3 -17 3 -17 -2 0 -4 -17 -15 -37
-24 -21 -9 -49 -22 -63 -30 -14 -8 -45 -25 -70 -37 -40 -21 -43 -21 -29 -4 9
10 15 24 12 30 -4 13 91 64 118 64 10 0 20 4 24 9 3 6 38 17 78 25 149 32 232
33 286 5z m333 -24 c8 3 23 -4 34 -16 l19 -22 -30 19 -30 18 20 -23 20 -24
-20 11 c-11 6 -31 21 -45 32 -21 18 -22 20 -3 11 12 -6 28 -9 35 -6z m-299
-149 c18 -7 41 -23 52 -35 l19 -22 -29 11 c-16 6 -35 16 -41 21 -7 5 -31 16
-55 23 -44 14 -44 14 -11 15 18 1 47 -5 65 -13z m395 -126 c6 0 13 -6 13 -12
1 -7 2 -17 3 -23 0 -5 17 -39 37 -75 20 -36 45 -87 55 -115 17 -47 47 -88 57
-79 13 14 93 -248 103 -336 1 -19 10 -62 18 -95 8 -32 13 -62 10 -65 -11 -11
-35 36 -30 60 2 14 -11 77 -30 141 -19 64 -34 125 -34 136 0 11 -13 37 -30 59
-16 21 -30 43 -30 48 0 5 -16 45 -36 90 -40 89 -103 193 -176 289 -58 77 -50
98 11 28 25 -28 52 -51 59 -51z m-1104 28 c-60 -68 -84 -89 -84 -74 0 13 104
116 117 116 3 0 -12 -19 -33 -42z m-76 -8 c-56 -68 -92 -114 -109 -140 -9 -14
-20 -22 -24 -18 -8 7 32 61 109 144 57 63 72 71 24 14z m918 9 c21 -23 23 -29
9 -21 -25 13 -62 52 -48 52 5 0 22 -14 39 -31z m-163 -36 c27 -13 47 -27 44
-29 -3 -3 -24 4 -46 16 -23 11 -65 27 -94 35 l-52 15 50 -6 c27 -3 71 -17 98
-31z m-254 13 c-8 -8 -79 -35 -79 -30 0 6 60 33 74 34 5 0 7 -2 5 -4z m-205
-141 c-56 -51 -123 -126 -149 -164 -27 -39 -51 -69 -53 -66 -11 11 92 144 154
200 113 102 139 124 144 125 2 0 -41 -43 -96 -95z m-352 8 c-24 -32 -52 -44
-52 -22 0 5 12 25 27 43 20 26 29 31 38 22 10 -8 7 -18 -13 -43z m-72 -27 c0
-3 -4 -8 -10 -11 -5 -3 -10 -1 -10 4 0 6 5 11 10 11 6 0 10 -2 10 -4z m-50
-30 c0 -2 -8 -10 -17 -17 -16 -13 -17 -12 -4 4 13 16 21 21 21 13z m1090 -34
c0 -15 -2 -15 -10 -2 -13 20 -13 33 0 25 6 -3 10 -14 10 -23z m-1051 -48 c-31
-33 -34 -24 -7 22 18 30 24 35 26 20 2 -10 -6 -29 -19 -42z m51 10 c-18 -21
-24 -10 -8 15 7 12 14 17 16 11 2 -6 -2 -17 -8 -26z m-100 6 c0 -42 -67 -159
-82 -144 -3 2 -4 -11 -3 -30 0 -19 -3 -32 -7 -30 -4 3 -12 -4 -17 -15 -8 -13
-8 -20 -1 -23 6 -2 4 -12 -5 -23 -14 -17 -16 -17 -11 -2 3 9 1 17 -5 17 -6 0
-8 8 -5 18 3 9 -7 2 -24 -17 -57 -66 -44 -11 20 84 14 22 48 73 75 113 50 74
65 87 65 52z m-144 -38 c-18 -16 -18 -16 -6 6 6 13 14 21 18 18 3 -4 -2 -14
-12 -24z m1294 -12 c0 -5 -2 -10 -4 -10 -3 0 -8 5 -11 10 -3 6 -1 10 4 10 6 0
11 -4 11 -10z m490 -42 c11 -24 20 -52 19 -63 0 -20 0 -20 -11 -1 -14 25 -39
106 -32 106 3 0 14 -19 24 -42z m-649 -40 c11 -21 15 -38 9 -38 -12 0 4 -31
36 -72 12 -15 25 -47 28 -71 4 -25 13 -48 20 -50 12 -5 21 -32 29 -87 3 -20
-15 -27 -24 -9 -37 80 -59 131 -59 141 0 6 -10 22 -22 35 -11 12 -22 37 -23
55 -2 18 -5 40 -7 48 -8 26 -25 74 -34 95 -14 36 25 -4 47 -47z m676 30 c-3
-8 -6 -5 -6 6 -1 11 2 17 5 13 3 -3 4 -12 1 -19z m-1783 0 c-26 -45 -127 -198
-131 -198 -5 0 -7 -4 52 95 45 76 73 115 82 115 2 0 1 -6 -3 -12z m1006 -43
c0 -9 -6 -12 -15 -9 -8 4 -12 10 -9 15 8 14 24 10 24 -6z m-300 -5 c0 -5 -2
-10 -4 -10 -3 0 -8 5 -11 10 -3 6 -1 10 4 10 6 0 11 -4 11 -10z m-380 -87
c-18 -32 -41 -73 -51 -92 -10 -19 -24 -40 -30 -45 -11 -10 5 21 80 156 14 26
27 45 29 43 2 -2 -10 -30 -28 -62z m-368 -45 c-7 -7 -12 -8 -12 -2 0 14 12 26
19 19 2 -3 -1 -11 -7 -17z m1402 7 c3 -8 1 -15 -4 -15 -6 0 -10 7 -10 15 0 8
2 15 4 15 2 0 6 -7 10 -15z m-1004 -82 c-12 -16 -28 -41 -36 -58 -7 -16 -17
-37 -22 -45 -5 -8 -23 -42 -39 -75 -92 -180 -106 -205 -110 -201 -6 5 135 292
152 310 5 6 19 27 29 46 17 31 34 49 44 50 2 0 -6 -12 -18 -27z m1034 -19 c3
-8 2 -12 -4 -9 -6 3 -10 10 -10 16 0 14 7 11 14 -7z m-1170 -44 c-17 -33 -37
-51 -27 -23 6 17 32 53 39 53 1 0 -4 -13 -12 -30z m1221 -185 l5 -60 -14 70
c-8 39 -18 81 -21 95 -4 16 0 13 10 -10 9 -18 18 -61 20 -95z m-179 10 c1 -22
7 -71 13 -110 14 -84 21 -499 9 -517 -7 -10 -11 -9 -21 4 -10 13 -11 33 -4 89
8 52 7 80 -2 105 -7 19 -9 44 -5 57 12 36 11 78 -3 146 -10 49 -11 73 -2 98 7
22 7 38 1 46 -15 20 -33 134 -26 164 l7 28 15 -35 c8 -19 16 -53 18 -75z
m-1556 41 c0 -3 -4 -8 -10 -11 -5 -3 -10 -1 -10 4 0 6 5 11 10 11 6 0 10 -2
10 -4z m430 -14 c0 -5 -7 -17 -15 -28 -14 -18 -14 -17 -4 9 12 27 19 34 19 19z
m-467 -37 c-3 -9 -8 -14 -10 -11 -3 3 -2 9 2 15 9 16 15 13 8 -4z m2122 -5 c9
-14 34 -196 30 -218 -1 -9 5 -25 13 -35 14 -15 16 -47 13 -220 -2 -111 -3
-218 -3 -237 0 -20 -2 -26 -5 -15 -3 11 -8 24 -12 28 -5 4 -6 73 -3 153 4 122
2 147 -11 157 -11 9 -16 38 -20 110 -2 54 0 100 5 103 4 3 6 9 3 14 -2 4 -9
36 -14 71 -5 35 -12 72 -16 82 -8 18 9 24 20 7z m-2061 -67 c-7 -21 -22 -56
-33 -78 -12 -21 -21 -50 -21 -62 0 -13 -5 -23 -11 -23 -16 0 -5 41 34 127 34
77 54 99 31 36z m381 -140 c-18 -38 -36 -80 -40 -95 -4 -15 -13 -32 -20 -38
-15 -13 54 160 74 184 23 27 20 18 -14 -51z m1352 -45 c-3 -8 -6 -5 -6 6 -1
11 2 17 5 13 3 -3 4 -12 1 -19z m320 -10 c-3 -7 -5 -2 -5 12 0 14 2 19 5 13 2
-7 2 -19 0 -25z m-310 -90 c-3 -8 -6 -5 -6 6 -1 11 2 17 5 13 3 -3 4 -12 1
-19z m-1452 -58 c-9 -18 -18 -30 -21 -28 -2 3 3 19 12 37 9 18 18 30 21 28 2
-3 -3 -19 -12 -37z m-39 -97 c-14 -26 -25 -45 -26 -41 -1 14 41 101 46 95 3
-3 -6 -27 -20 -54z m1491 -50 c-3 -10 -5 -4 -5 12 0 17 2 24 5 18 2 -7 2 -21
0 -30z m-1966 0 c-8 -15 -10 -15 -11 -2 0 17 10 32 18 25 2 -3 -1 -13 -7 -23z
m417 -80 c-22 -59 -38 -87 -38 -65 0 15 47 122 54 122 3 0 -4 -26 -16 -57z
m1549 -15 c-2 -13 -4 -5 -4 17 -1 22 1 32 4 23 2 -10 2 -28 0 -40z m-2105 20
c-7 -7 -12 -8 -12 -2 0 14 12 26 19 19 2 -3 -1 -11 -7 -17z m112 -3 c-4 -8 -8
-15 -10 -15 -2 0 -4 7 -4 15 0 8 4 15 10 15 5 0 7 -7 4 -15z m656 -29 c0 -2
-11 -24 -25 -47 -28 -50 -34 -38 -8 16 14 29 33 47 33 31z m1325 -136 c-4 -34
-9 -59 -12 -57 -2 3 -1 33 3 66 4 34 9 60 11 57 3 -3 2 -32 -2 -66z m-1594 33
c-8 -15 -10 -15 -11 -2 0 17 10 32 18 25 2 -3 -1 -13 -7 -23z m-407 -12 c3 -5
-3 -20 -13 -32 -18 -22 -20 -22 -26 -6 -11 27 25 62 39 38z m-32 -93 c-7 -7
-12 -25 -12 -40 0 -15 -4 -28 -10 -28 -16 0 -11 52 7 72 9 10 19 16 21 13 3
-3 0 -11 -6 -17z m-92 8 c0 -3 -4 -8 -10 -11 -5 -3 -10 -1 -10 4 0 6 5 11 10
11 6 0 10 -2 10 -4z m1 -92 c-12 -15 -21 -36 -21 -48 0 -25 -43 -121 -59 -130
-11 -7 -5 19 9 39 4 6 19 42 33 80 14 39 31 83 38 100 13 27 14 28 17 7 2 -12
-6 -34 -17 -48z m640 -67 c-8 -8 -11 -7 -11 4 0 20 13 34 18 19 3 -7 -1 -17
-7 -23z m-720 -28 l-10 -24 0 26 c-1 14 2 29 6 33 12 12 14 -9 4 -35z m2176
-16 c-3 -10 -5 -4 -5 12 0 17 2 24 5 18 2 -7 2 -21 0 -30z m-2105 -8 c-4 -26
-22 -45 -22 -25 0 12 18 50 24 50 2 0 1 -11 -2 -25z m2095 -97 c-3 -8 -6 -5
-6 6 -1 11 2 17 5 13 3 -3 4 -12 1 -19z m-25 -175 c-3 -16 -7 -22 -10 -15 -4
13 4 42 11 42 2 0 2 -12 -1 -27z m-208 -45 c-7 -23 -15 -94 -15 -130 0 -15 -4
-30 -9 -33 -6 -4 -10 -17 -10 -30 0 -13 -5 -27 -10 -30 -6 -3 -7 -17 -4 -30 3
-12 1 -25 -4 -29 -11 -7 -25 51 -15 67 3 5 7 24 9 41 1 17 4 45 7 61 3 17 10
57 14 90 11 76 23 98 35 65 5 -12 6 -31 2 -42z m193 -40 c-3 -8 -6 -5 -6 6 -1
11 2 17 5 13 3 -3 4 -12 1 -19z m-15 -133 c-7 -54 -10 -60 -11 -29 -1 49 12
147 17 119 1 -11 -1 -51 -6 -90z m55 33 c-3 -8 -6 -5 -6 6 -1 11 2 17 5 13 3
-3 4 -12 1 -19z m-73 -157 c-4 -23 -9 -40 -11 -37 -3 3 -2 23 2 46 4 23 9 39
11 37 3 -2 2 -23 -2 -46z m-13 -92 c-9 -23 -10 -22 -10 11 -1 23 2 31 9 24 7
-7 7 -19 1 -35z m-14 -101 c-3 -7 -5 -2 -5 12 0 14 2 19 5 13 2 -7 2 -19 0
-25z m-8 -46 c-2 -15 0 -33 4 -40 5 -6 4 -12 0 -12 -12 0 -42 -123 -48 -192
-4 -62 -24 -115 -25 -68 0 27 62 340 68 340 2 0 2 -12 1 -28z m-1719 -152 c0
-5 -5 -10 -11 -10 -5 0 -7 5 -4 10 3 6 8 10 11 10 2 0 4 -4 4 -10z m-15 -67
c-4 -10 -12 -30 -17 -45 -10 -28 -28 -38 -28 -17 0 19 32 79 42 79 6 0 7 -8 3
-17z m1742 -25 c-3 -8 -6 -5 -6 6 -1 11 2 17 5 13 3 -3 4 -12 1 -19z m-396
-135 c-16 -34 -22 -25 -14 21 5 31 8 35 16 21 6 -11 5 -26 -2 -42z m319 -23
c0 -16 -4 -30 -9 -30 -7 0 -8 19 -2 53 3 19 11 4 11 -23z m-30 -106 c-16 -49
-21 -38 -8 16 6 24 13 39 16 32 2 -6 -2 -28 -8 -48z m63 21 c-3 -9 -8 -14 -10
-11 -3 3 -2 9 2 15 9 16 15 13 8 -4z m-312 -92 c-9 -16 -10 -16 -11 -1 0 9 3
25 7 35 7 16 8 17 11 1 2 -10 -1 -25 -7 -35z m299 2 c0 -8 -4 -15 -10 -15 -5
0 -7 7 -4 15 4 8 8 15 10 15 2 0 4 -7 4 -15z m-79 -43 c-6 -10 -7 -30 -4 -43
4 -19 3 -21 -7 -12 -14 12 -5 73 11 73 6 0 6 -7 0 -18z m69 -12 c0 -5 -4 -10
-10 -10 -5 0 -10 5 -10 10 0 6 5 10 10 10 6 0 10 -4 10 -10z m-2328 -46 c-4
-58 -11 -86 -22 -79 -11 7 -14 84 -4 110 12 29 29 9 26 -31z m2240 -46 c-9 -9
-12 -7 -12 12 0 19 3 21 12 12 9 -9 9 -15 0 -24z m53 -38 c-4 -12 -9 -19 -12
-17 -3 3 -2 15 2 27 4 12 9 19 12 17 3 -3 2 -15 -2 -27z m-2308 -42 c-3 -7 -5
-2 -5 12 0 14 2 19 5 13 2 -7 2 -19 0 -25z m2290 -20 c-3 -8 -6 -5 -6 6 -1 11
2 17 5 13 3 -3 4 -12 1 -19z m-2184 -70 c-9 -97 -20 -113 -21 -29 -1 75 2 91
18 91 4 0 6 -28 3 -62z m2169 20 c-7 -7 -12 -8 -12 -2 0 6 3 14 7 17 3 4 9 5
12 2 2 -3 -1 -11 -7 -17z m-2081 -123 l-8 -80 -2 70 c0 39 2 81 6 95 12 41 14
1 4 -85z m2011 60 c-9 -19 -17 -33 -19 -32 -6 6 21 76 27 72 4 -3 1 -20 -8
-40z m31 -95 c-3 -11 -7 -20 -9 -20 -2 0 -4 9 -4 20 0 11 4 20 9 20 5 0 7 -9
4 -20z m-64 -17 c0 -5 -4 -17 -9 -28 -8 -18 -9 -17 -9 8 -1 15 4 27 9 27 6 0
10 -3 9 -7z m-25 -87 c-3 -14 -10 -26 -15 -26 -5 0 -6 7 -4 15 3 8 7 22 10 31
9 27 17 9 9 -20z m-1944 -53 c0 -24 -4 -43 -9 -43 -11 0 -24 86 -15 101 11 19
24 -12 24 -58z m2010 47 c0 -5 -4 -10 -10 -10 -5 0 -10 5 -10 10 0 6 5 10 10
10 6 0 10 -4 10 -10z m-101 -96 c-12 -32 -25 -52 -27 -45 -5 14 38 114 46 106
3 -2 -6 -30 -19 -61z m43 -84 c-2 -16 -10 -30 -17 -30 -11 0 -11 6 -2 30 6 17
14 30 17 30 4 0 5 -13 2 -30z m-93 -51 c-11 -30 -25 -65 -30 -78 -5 -13 -12
-22 -14 -19 -5 4 8 41 35 103 4 11 11 29 14 39 4 10 9 17 12 14 2 -3 -5 -30
-17 -59z m59 -20 c-6 -16 -12 -28 -14 -26 -5 5 13 57 20 57 3 0 0 -14 -6 -31z
m-41 -109 c-11 -28 -25 -50 -30 -50 -5 0 -4 6 2 13 6 8 9 16 6 19 -9 8 25 79
34 73 5 -3 0 -28 -12 -55z m-1768 -40 c0 -8 -6 -4 -13 10 -8 14 -12 29 -8 34
6 10 20 -20 21 -44z m1692 27 c-10 -9 -11 -8 -5 6 3 10 9 15 12 12 3 -3 0 -11
-7 -18z m-1 -21 c0 -3 -4 -8 -10 -11 -5 -3 -10 -1 -10 4 0 6 5 11 10 11 6 0
10 -2 10 -4z m-29 -57 c-5 -13 -10 -19 -10 -12 -1 15 10 45 15 40 3 -2 0 -15
-5 -28z m64 -1 c-2 -7 -7 -26 -9 -42 -3 -16 -10 -32 -15 -35 -5 -4 -15 -28
-21 -54 -7 -27 -18 -47 -26 -47 -8 0 -11 -6 -8 -15 4 -9 0 -15 -9 -15 -12 0
-8 18 22 83 21 45 43 94 49 110 11 26 26 39 17 15z m-82 -43 c-3 -9 -8 -14
-10 -11 -3 3 -2 9 2 15 9 16 15 13 8 -4z m-25 -55 c-14 -22 -24 -19 -15 5 4 8
11 15 17 15 6 0 6 -7 -2 -20z m-28 -69 c-6 -12 -15 -19 -20 -16 -5 3 -2 14 7
25 21 24 28 19 13 -9z m-45 -79 c-15 -16 -16 -15 -4 12 7 15 15 23 17 16 3 -7
-3 -19 -13 -28z m59 -40 c-4 -9 -6 -21 -5 -25 0 -4 -6 -10 -14 -13 -8 -3 -12
-10 -9 -15 3 -5 0 -9 -5 -9 -6 0 -11 -6 -11 -12 -1 -19 -60 -94 -60 -76 0 9 6
20 13 26 7 6 30 47 52 92 23 47 41 75 43 66 2 -10 0 -25 -4 -34z m-88 -18 c-4
-9 -9 -15 -11 -12 -3 3 -3 13 1 22 4 9 9 15 11 12 3 -3 3 -13 -1 -22z m-41
-79 c-14 -21 -25 -34 -25 -29 0 14 41 77 46 71 3 -2 -6 -22 -21 -42z m-1245
-126 c0 -18 -18 -9 -23 12 -4 16 -3 18 9 8 8 -6 14 -15 14 -20z m1170 11 c0
-5 -5 -10 -11 -10 -5 0 -7 5 -4 10 3 6 8 10 11 10 2 0 4 -4 4 -10z m34 -72
c-31 -33 -116 -141 -143 -182 -8 -11 2 -5 24 14 38 34 38 34 18 5 -12 -16 -36
-43 -54 -60 -26 -24 -29 -26 -16 -6 8 13 14 28 11 35 -2 6 13 32 33 57 21 25
59 74 85 107 27 34 53 62 60 62 7 0 -2 -15 -18 -32z m-1014 -18 c6 -11 8 -20
6 -20 -3 0 -10 9 -16 20 -6 11 -8 20 -6 20 3 0 10 -9 16 -20z m-152 -25 c-3
-3 -9 2 -12 12 -6 14 -5 15 5 6 7 -7 10 -15 7 -18z m52 -36 c7 -11 9 -23 6
-26 -7 -7 -46 26 -46 39 0 17 30 7 40 -13z m864 -232 c-54 -59 -187 -141 -247
-153 -12 -2 -35 -10 -52 -18 -40 -18 -98 -29 -90 -16 3 6 14 10 23 10 10 0 26
6 37 14 11 7 38 19 60 26 66 21 125 55 210 119 44 34 84 61 89 61 5 0 -9 -19
-30 -43z m-446 -204 c-10 -2 -26 -2 -35 0 -10 3 -2 5 17 5 19 0 27 -2 18 -5z"/>
<path d="M4488 6983 c6 -2 18 -2 25 0 6 3 1 5 -13 5 -14 0 -19 -2 -12 -5z"/>
<path d="M3807 6573 c-11 -13 -17 -26 -14 -29 2 -3 12 7 21 22 23 33 17 39 -7
7z"/>
<path d="M4526 6233 c-6 -14 -5 -15 5 -6 7 7 10 15 7 18 -3 3 -9 -2 -12 -12z"/>
<path d="M4320 6226 c0 -2 7 -9 15 -16 9 -7 15 -8 15 -2 0 5 -7 12 -15 16 -8
3 -15 4 -15 2z"/>
<path d="M4565 6180 c3 -5 8 -10 11 -10 2 0 4 5 4 10 0 6 -5 10 -11 10 -5 0
-7 -4 -4 -10z"/>
<path d="M4184 6085 c-9 -14 -14 -28 -11 -31 3 -3 13 8 22 25 19 37 12 41 -11
6z"/>
<path d="M5461 6037 c17 -81 19 -87 30 -87 9 0 7 29 -6 96 -3 12 -11 24 -19
27 -11 4 -12 -2 -5 -36z"/>
<path d="M4633 6000 c4 -14 7 -35 7 -48 0 -13 4 -21 9 -18 9 6 -2 73 -15 84
-4 4 -4 -4 -1 -18z"/>
<path d="M4136 5993 c-6 -14 -5 -15 5 -6 7 7 10 15 7 18 -3 3 -9 -2 -12 -12z"/>
<path d="M4099 5923 c-22 -46 -22 -50 1 -15 13 18 20 35 18 37 -3 3 -11 -7
-19 -22z"/>
<path d="M4680 5938 c0 -9 5 -20 10 -23 13 -8 13 5 0 25 -8 13 -10 13 -10 -2z"/>
<path d="M4716 5912 c-3 -5 -1 -22 4 -38 8 -29 8 -29 9 9 1 36 -3 45 -13 29z"/>
<path d="M4740 5810 c-9 -32 -10 -120 -1 -120 6 0 11 -8 12 -17 0 -10 5 -4 10
12 5 20 4 47 -5 80 -8 28 -15 48 -16 45z"/>
<path d="M4081 5773 c0 -6 -4 -20 -7 -30 -5 -14 -4 -15 5 -7 7 7 11 20 8 30
-3 11 -5 14 -6 7z"/>
<path d="M4677 5679 c4 -13 8 -18 11 -10 2 7 -1 18 -6 23 -8 8 -9 4 -5 -13z"/>
<path d="M4711 5634 c0 -11 3 -14 6 -6 3 7 2 16 -1 19 -3 4 -6 -2 -5 -13z"/>
<path d="M4736 5628 c-9 -34 -8 -38 9 -38 8 0 15 -7 15 -16 0 -8 4 -13 8 -10
12 7 0 78 -14 83 -6 2 -14 -6 -18 -19z"/>
<path d="M3980 5550 c-6 -12 -9 -24 -7 -27 3 -2 11 5 17 17 6 12 9 24 7 27 -3
2 -11 -5 -17 -17z"/>
<path d="M5498 5524 c-3 -5 0 -25 5 -44 8 -27 12 -30 14 -15 4 24 -11 73 -19
59z"/>
<path d="M4752 5430 c0 -19 2 -27 5 -17 2 9 2 25 0 35 -3 9 -5 1 -5 -18z"/>
<path d="M3880 5345 c-7 -16 -18 -45 -26 -62 -7 -18 -12 -33 -9 -33 9 0 56
102 52 113 -2 7 -10 -1 -17 -18z"/>
<path d="M4757 5334 c-12 -13 -8 -55 8 -70 13 -14 15 -13 14 8 -2 36 -13 70
-22 62z"/>
<path d="M5510 5220 c0 -22 3 -40 8 -40 4 0 6 18 4 40 -2 22 -6 40 -8 40 -2 0
-4 -18 -4 -40z"/>
<path d="M4772 5220 c0 -14 2 -19 5 -12 2 6 2 18 0 25 -3 6 -5 1 -5 -13z"/>
<path d="M4716 5202 c-3 -5 -1 -22 4 -38 8 -29 8 -29 9 9 1 36 -3 45 -13 29z"/>
<path d="M2885 5121 c-3 -12 -11 -21 -17 -21 -6 0 -7 8 -3 18 4 11 3 13 -3 7
-17 -19 -23 -62 -8 -62 14 0 51 65 42 74 -2 2 -7 -5 -11 -16z"/>
<path d="M4748 5068 c-3 -7 -3 -33 0 -57 5 -54 22 -35 22 27 0 40 -13 57 -22
30z"/>
<path d="M2841 5013 c-1 -6 -4 -20 -7 -30 -5 -17 -5 -17 6 0 6 10 9 23 6 30
-3 9 -5 9 -5 0z"/>
<path d="M3646 4834 c-9 -23 -7 -36 3 -30 12 8 21 46 11 46 -4 0 -11 -7 -14
-16z"/>
<path d="M2714 4798 c-12 -24 -14 -36 -6 -49 12 -18 6 -45 -23 -112 -9 -22
-14 -44 -12 -50 5 -14 39 58 43 91 5 41 25 92 39 100 18 9 8 52 -11 52 -7 0
-21 -14 -30 -32z"/>
<path d="M4636 4648 c-9 -34 -7 -50 4 -43 12 8 13 -15 1 -34 -5 -8 -6 -21 -3
-30 7 -19 24 37 24 82 1 38 -17 56 -26 25z"/>
<path d="M4641 4330 c0 -14 4 -32 9 -40 9 -13 10 -13 9 0 -1 8 -5 26 -9 40
l-8 25 -1 -25z"/>
<path d="M3415 4310 c-4 -12 -5 -24 -2 -27 3 -2 8 5 12 17 4 12 5 24 2 27 -3
2 -8 -5 -12 -17z"/>
<path d="M5412 4300 c0 -19 2 -27 5 -17 2 9 2 25 0 35 -3 9 -5 1 -5 -18z"/>
<path d="M2611 4164 c0 -11 3 -14 6 -6 3 7 2 16 -1 19 -3 4 -6 -2 -5 -13z"/>
<path d="M2567 4110 c-3 -11 -1 -20 4 -20 5 0 9 9 9 20 0 11 -2 20 -4 20 -2 0
-6 -9 -9 -20z"/>
<path d="M4496 3910 c-3 -18 -4 -35 -1 -38 3 -3 5 0 5 6 0 22 19 12 22 -10 3
-22 4 -21 9 3 4 17 0 35 -11 49 l-17 23 -7 -33z"/>
<path d="M4437 3668 c-8 -28 -9 -73 -2 -66 12 12 22 66 15 78 -5 8 -9 4 -13
-12z"/>
<path d="M4400 3503 c0 -14 3 -23 7 -19 10 10 11 46 1 46 -4 0 -8 -12 -8 -27z"/>
<path d="M2432 2899 c-1 -14 -5 -48 -8 -75 -5 -37 -4 -46 5 -38 8 7 11 34 8
75 -2 35 -4 52 -5 38z"/>
<path d="M4286 2883 c-6 -14 -5 -15 5 -6 7 7 10 15 7 18 -3 3 -9 -2 -12 -12z"/>
<path d="M4167 2723 c-4 -3 -7 -11 -7 -17 0 -6 5 -5 12 2 6 6 9 14 7 17 -3 3
-9 2 -12 -2z"/>
<path d="M2432 2700 c0 -14 2 -19 5 -12 2 6 2 18 0 25 -3 6 -5 1 -5 -13z"/>
<path d="M2893 2535 c0 -27 2 -38 4 -22 2 15 2 37 0 50 -2 12 -4 0 -4 -28z"/>
<path d="M4076 2505 c-3 -9 -6 -22 -5 -28 0 -7 5 -1 10 12 5 13 8 26 5 28 -2
2 -6 -3 -10 -12z"/>
<path d="M2677 2451 c-2 -10 2 -29 9 -42 13 -23 13 -23 14 13 0 40 -15 59 -23
29z"/>
<path d="M2890 2445 c0 -14 2 -25 4 -25 2 0 6 11 8 25 3 14 1 25 -3 25 -5 0
-9 -11 -9 -25z"/>
<path d="M2622 2440 c0 -14 2 -19 5 -12 2 6 2 18 0 25 -3 6 -5 1 -5 -13z"/>
<path d="M2902 2340 c0 -14 2 -19 5 -12 2 6 2 18 0 25 -3 6 -5 1 -5 -13z"/>
<path d="M4001 2282 c-7 -14 -6 -18 9 -18 10 0 21 8 23 18 3 11 0 18 -9 18 -7
0 -18 -8 -23 -18z"/>
<path d="M2662 2120 c0 -19 2 -27 5 -17 2 9 2 25 0 35 -3 9 -5 1 -5 -18z"/>
<path d="M3921 2136 c-8 -10 -9 -16 -1 -21 5 -3 13 1 16 10 9 22 -1 29 -15 11z"/>
<path d="M2935 2003 c3 -10 12 -40 18 -67 10 -45 12 -47 18 -22 8 28 -17 106
-34 106 -5 0 -6 -8 -2 -17z"/>
<path d="M3237 1639 c12 -12 24 -21 27 -18 2 2 -8 13 -22 23 l-27 19 22 -24z"/>
<path d="M3360 1535 c0 -8 9 -15 20 -15 11 0 20 2 20 5 0 2 -9 9 -20 15 -16 9
-20 8 -20 -5z"/>
</g>
</svg>
